<svg width="1280" height="69" viewBox="0 0 1280 69" fill="none" xmlns="http://www.w3.org/2000/svg">
<path d="M1280 0.5V69H0V0.5L130.295 41.1011C143.47 45.2067 157.566 45.3262 170.809 41.4444L290.902 6.24423C303.701 2.49293 317.304 2.47587 330.112 6.19504L453.486 42.0211C465.603 45.5396 478.446 45.7178 490.656 42.5366L633.16 5.40861C645.486 2.19716 658.455 2.40986 670.669 6.02382L791.656 41.8216C803.98 45.4682 817.071 45.6512 829.492 42.3508L968.008 5.54641C980.429 2.24594 993.52 2.429 1005.84 6.07554L1123.88 41.0005C1137.94 45.1598 1152.95 44.8008 1166.79 39.9744L1280 0.5Z" fill="#22262C"/>
</svg>
